<svg width="137" height="116" viewBox="0 0 137 116" fill="none" xmlns="http://www.w3.org/2000/svg">
<path d="M59.1001 61.5H56.2001L49.7001 32.5H52.6001L59.1001 61.5Z" fill="#8488A3"/>
<path d="M85.0764 61.4455V58.5455L56.1764 58.5455V61.4455L85.0764 61.4455Z" fill="#8488A3"/>
<path d="M12.4 110.2H7.5V115.3H12.4V110.2Z" fill="#F4D3C2"/>
<path d="M106 73.7L78.4001 62.5C74.0001 60.3 68.7001 61.6999 66.0001 65.7999L46.2001 101.5L61.8 96.7999L76.0001 80.7L87.2001 89.2L113.8 85.7999L106 73.7Z" fill="#021E33"/>
<path d="M106.4 84.0999C106.4 84.0999 20 100.7 12.5 109V115.5L119.5 113.7C119.5 113.7 128.6 111.2 127.8 99.4999L106.4 84.0999Z" fill="#083451"/>
<path d="M6.40002 115.6H2.80002C1.70002 115.6 0.900024 114.7 0.900024 113.7V107.4C0.900024 106.3 1.80002 105.5 2.80002 105.5H6.40002C7.50002 105.5 8.30002 106.4 8.30002 107.4V113.7C8.30002 114.7 7.50002 115.6 6.40002 115.6Z" fill="#063455"/>
<path d="M0.900024 106.8C0.900024 106.8 1.30004 92.8999 2.70004 93.0999C5.80004 93.4999 8.40002 106.8 8.40002 106.8H0.900024Z" fill="#063455"/>
<path d="M109.9 6.29993L104.9 18.7999C104.6 20.1999 105.3 21.5999 106.6 22.2999L112.1 24.9V32.5999L119.5 29.7999L118.6 8.19995L109.9 6.29993Z" fill="#FDD3C3"/>
<path d="M109.9 8.99995L116.9 12.2C116.9 12.2 113.6 15.4 118.8 22.2C118.8 22.2 126.8 19.7999 127.3 16.5999C127.8 13.2999 124.6 7.79994 122.1 8.29994C119.6 8.79994 117.6 -6.60002 108.5 3.89998C108.5 3.89998 106.5 6.69995 109.9 8.99995Z" fill="#3A3935"/>
<path d="M112 32.5999L112.1 34.5999L121.3 30.9999L119.4 29.7L112 32.5999Z" fill="#86DCB7"/>
<path d="M112.1 34.6C112.1 34.6 104 72.4 106.3 84.1L126.6 106.8C126.6 106.8 152.4 51.6 121.2 31L112.1 34.6Z" fill="#00DF99"/>
<path d="M118.168 17.9109C118.713 16.7639 118.63 15.584 117.982 15.2755C117.333 14.9671 116.366 15.6469 115.82 16.794C115.274 17.941 115.357 19.1209 116.006 19.4293C116.654 19.7378 117.622 19.058 118.168 17.9109Z" fill="#FDD3C3"/>
<path d="M120 59.4998L115.5 75.8999C115.1 76.9999 113.8 77.2998 112.9 76.5998L86.0001 55.1999C86.0001 55.1999 78.1001 50.0999 75.0001 57.3999C75.0001 57.3999 74.7001 59.5999 83.7001 60.6999C83.7001 60.6999 103.9 89.2998 115.7 92.0998C131 95.5998 132.7 62.6999 132.7 62.6999L120 59.4998Z" fill="#FDD3C3"/>
</svg>
